<?xml version="1.0" standalone="no"?>
<!DOCTYPE svg PUBLIC "-//W3C//DTD SVG 20010904//EN"
 "http://www.w3.org/TR/2001/REC-SVG-20010904/DTD/svg10.dtd">
<svg version="1.0" xmlns="http://www.w3.org/2000/svg"
 width="16.000000pt" height="16.000000pt" viewBox="0 0 16.000000 16.000000"
 preserveAspectRatio="xMidYMid meet">
<metadata>
Created by potrace 1.11, written by Peter Selinger 2001-2013
</metadata>
<g transform="translate(0.000000,16.000000) scale(0.006154,-0.006154)"
fill="#000000" stroke="none">
<path d="M1155 2594 c-83 -13 -196 -38 -250 -56 -453 -152 -780 -519 -881
-988 -26 -119 -26 -381 0 -500 112 -523 503 -914 1026 -1026 119 -26 381 -26
500 0 469 101 836 428 988 881 43 129 57 223 57 395 0 172 -14 266 -57 395
-149 446 -508 771 -965 876 -86 19 -346 34 -418 23z m397 -917 l36 -62 -30
-55 c-47 -84 -43 -81 -127 -78 l-75 3 -34 65 -35 65 37 63 37 62 77 0 77 0 37
-63z m-277 -152 c21 -36 34 -72 31 -80 -3 -8 -20 -39 -39 -67 l-33 -53 -76 3
-75 3 -36 65 -37 64 23 37 c13 21 31 50 41 66 16 26 20 27 91 27 l74 0 36 -65z
m-263 -158 l36 -62 -30 -55 c-46 -82 -43 -80 -124 -80 l-74 0 -23 38 c-59 93
-59 90 -18 159 l36 63 80 0 80 0 37 -63z m538 1 l39 -62 -31 -56 c-47 -82 -43
-80 -124 -80 l-73 0 -35 59 c-20 32 -36 62 -36 66 0 5 16 37 35 72 l36 63 75
0 75 0 39 -62z m-276 -153 c21 -36 35 -72 32 -80 -3 -8 -21 -40 -41 -70 l-35
-55 -69 0 -70 0 -40 68 -39 67 30 55 c46 82 43 80 122 80 l72 0 38 -65z m542
3 c21 -33 37 -66 37 -73 0 -7 -16 -40 -37 -73 l-37 -62 -74 0 -74 0 -37 62
c-21 33 -37 66 -37 73 0 7 16 40 37 73 l37 62 74 0 74 0 37 -62z m-804 -163
l36 -65 -36 -65 -37 -64 -80 -1 -80 0 -32 56 c-18 31 -33 63 -33 71 0 9 15 42
32 74 l33 59 80 0 80 -1 37 -64z m539 -3 l39 -64 -38 -64 -37 -64 -81 0 -80 0
-34 63 -34 64 39 67 40 67 74 -3 74 -3 38 -63z"/>
</g>
</svg>
